<?xml version="1.0" encoding="UTF-8" standalone="no"?>
<!DOCTYPE svg PUBLIC "-//W3C//DTD SVG 1.1//EN" "http://www.w3.org/Graphics/SVG/1.1/DTD/svg11.dtd">
<svg width="100%" height="100%" viewBox="0 0 135 239" version="1.1" xmlns="http://www.w3.org/2000/svg" xmlns:xlink="http://www.w3.org/1999/xlink" xml:space="preserve" xmlns:serif="http://www.serif.com/" style="fill-rule:evenodd;clip-rule:evenodd;stroke-linejoin:round;stroke-miterlimit:2;">
    <g id="Layer_2" transform="matrix(1,0,0,1,-13,-204)">
        <g id="Layer_1-2">
            <g id="Layer_2-2">
                <g id="Layer_1-2-2">
                    <path d="M22,336.2L26.4,334.3L80.6,310.7L139.2,336.2L117.2,381.7L63.4,389.3L22.9,345.6L22,336.2Z" style="fill:rgb(19,52,68);fill-rule:nonzero;"/>
                    <path d="M127.1,308.2C117.4,296.5 103.7,289 88.7,287L87.7,286.9C83,286.3 78.3,286.3 73.6,286.9L72.6,287C57.6,289 43.9,296.6 34.2,308.2L31.8,312.2L27.7,318.9L24.7,323.8C24.7,323.9 24.6,324.1 24.5,324.2L24.5,324.3L31,328.2L72.5,352.8L80.5,357.5L80.5,298.8L72.5,302.4L72.5,293.6L80.5,290L88.5,293.6L129.3,312.2L127.1,308.2Z" style="fill:rgb(196,35,112);fill-rule:nonzero;"/>
                    <path d="M141,350.8C140.9,370.1 132.2,388.3 117.3,400.5C111.6,405.2 105.2,408.7 98.2,411.1C92.5,413 86.6,413.9 80.6,413.9C47.2,413.9 20.1,384.2 20.1,350.8C20.1,345.9 20.7,341 21.9,336.2L80.5,370.9L139.1,336.2C140.4,341 141.1,345.9 141,350.8Z" style="fill:rgb(28,77,107);fill-rule:nonzero;"/>
                    <path d="M73.6,286.9L80.6,290L72.6,293.7L72.6,286.4L73.6,286.9Z" style="fill-rule:nonzero;"/>
                    <path d="M72.6,302.5L80.6,298.8L80.6,357.6L72.6,352.8L72.6,302.5Z" style="fill-rule:nonzero;"/>
                    <path d="M80.6,298.8L80.6,357.6L136.8,324.4L80.6,298.8Z" style="fill:rgb(29,66,89);fill-rule:nonzero;"/>
                    <path d="M80.6,231.2L80.6,298.8L136.8,324.4L80.6,231.2Z" style="fill:rgb(75,107,154);fill-rule:nonzero;"/>
                    <path d="M80.6,298.8L80.6,357.5L72.6,352.8L24.5,324.4L24.4,324.4L24.5,324.4C24.5,324.3 24.6,324.1 24.7,324L31.7,312.3L72.5,293.8L72.5,302.5L80.6,298.8Z" style="fill:rgb(52,53,53);fill-rule:nonzero;"/>
                    <path d="M80.6,298.8L80.6,357.6L72.6,352.8L24.5,324.4L24.6,324.3L72.6,302.5L80.6,298.8Z" style="fill:rgb(62,85,120);fill-rule:nonzero;"/>
                    <path d="M80.6,231.2L80.6,298.8L24.5,324.4L80.6,231.2Z" style="fill:rgb(109,178,216);fill-rule:nonzero;"/>
                    <path d="M57.9,409.1C58.7,409.5 59.6,409.8 60.4,410.1C59.6,409.8 58.8,409.4 57.9,409.1Z" style="fill:rgb(51,95,138);fill-rule:nonzero;"/>
                    <path d="M60.4,410.1C61.2,410.4 62.1,410.8 63,411C62.2,410.8 61.3,410.5 60.4,410.1Z" style="fill:rgb(51,95,138);fill-rule:nonzero;"/>
                    <path d="M65.3,411.7C66,411.9 66.6,412.1 67.3,412.2C66.6,412.1 65.9,411.9 65.3,411.7Z" style="fill:rgb(51,95,138);fill-rule:nonzero;"/>
                    <path d="M22,336.2L80.6,370.9C79.8,376.2 78.4,381.3 76.4,386.3C71.7,397.7 62.3,409.7 43.9,400.5C29,388.3 20.3,370.1 20.2,350.8C20.2,345.9 20.8,341 22,336.2Z" style="fill:rgb(109,178,216);fill-rule:nonzero;"/>
                    <path d="M117.3,400.5L117.1,400.6C116.8,400.8 116.5,401.1 116.2,401.3L116.1,401.4C115.8,401.7 115.4,401.9 115.1,402.2C114.7,402.5 114.4,402.8 114,403C113.6,403.2 113.2,403.5 112.9,403.8C112.5,404.1 112.2,404.2 111.9,404.5L111.7,404.6C111.3,404.8 111,405 110.7,405.3C110.7,405.3 110.6,405.3 110.6,405.4C110.2,405.6 109.9,405.8 109.5,406.1C109.1,406.3 108.7,406.5 108.3,406.8L103.5,409.2C102.7,409.6 101.8,409.9 101,410.2C100.2,410.5 99.3,410.8 98.4,411.1C98.1,411.2 97.7,411.3 97.4,411.4L96.2,411.8C95.5,412 94.9,412.2 94.2,412.3C94,412.4 93.7,412.4 93.4,412.5L93,412.6L91.9,412.8C91.5,412.9 91.3,412.9 90.9,413C90.6,413.1 90.3,413.1 90,413.2C89.7,413.2 89.3,413.3 89,413.4C88.8,413.4 88.7,413.4 88.5,413.5L87.7,413.6L87.3,413.6C87,413.6 86.7,413.7 86.5,413.7C86.2,413.7 85.8,413.8 85.5,413.8L76.3,413.8C76,413.8 75.6,413.7 75.3,413.7C75,413.7 74.7,413.7 74.5,413.6L74.1,413.6C73.9,413.6 73.6,413.5 73.3,413.5C73.1,413.5 73,413.5 72.8,413.4C72.5,413.4 72.1,413.3 71.8,413.2C71.5,413.2 71.2,413.1 70.9,413C70.6,413 70.2,412.9 69.9,412.8C69.6,412.7 69.2,412.6 68.8,412.6L68.4,412.5C68.1,412.5 67.8,412.4 67.6,412.4C66.9,412.2 66.2,412 65.6,411.9L64.4,411.5C64,411.4 63.7,411.3 63.4,411.2C62.5,410.9 61.7,410.6 60.8,410.3C59.9,410 59.1,409.6 58.3,409.3L53.5,406.9C53.1,406.7 52.7,406.5 52.3,406.2C51.9,406 51.6,405.8 51.2,405.5L51.1,405.4C50.7,405.2 50.4,405 50.1,404.7L49.9,404.6C49.6,404.4 49.2,404.2 48.9,403.9C48.6,403.7 48.1,403.4 47.8,403.1C47.4,402.8 47,402.6 46.7,402.3L45.7,401.5L45.6,401.4C45.3,401.2 45,400.9 44.7,400.7L44.5,400.6C62.8,409.7 72.3,397.7 77,386.4C79,381.5 80.4,376.3 81.2,371C82,376.3 83.4,381.4 85.4,386.4C89.5,397.6 99,409.6 117.3,400.5Z" style="fill:rgb(82,155,186);fill-rule:nonzero;"/>
                    <path d="M94,412.3C94.7,412.1 95.4,411.9 96,411.8C95.4,411.9 94.7,412.1 94,412.3Z" style="fill:rgb(51,95,138);fill-rule:nonzero;"/>
                    <path d="M98.2,411C99.1,410.7 99.9,410.4 100.8,410.1C100,410.5 99.1,410.8 98.2,411Z" style="fill:rgb(51,95,138);fill-rule:nonzero;"/>
                    <path d="M100.8,410.1C101.6,409.8 102.5,409.4 103.3,409.1C102.5,409.4 101.7,409.8 100.8,410.1Z" style="fill:rgb(51,95,138);fill-rule:nonzero;"/>
                    <path d="M141,350.8C140.9,370.1 132.2,388.3 117.3,400.5C99,409.6 89.5,397.6 84.8,386.3C82.8,381.4 81.4,376.2 80.6,370.9L139.2,336.2C140.4,341 141,345.9 141,350.8Z" style="fill:rgb(75,107,154);fill-rule:nonzero;"/>
                </g>
            </g>
        </g>
    </g>
</svg>
